# xmcd
#
# Track frame offsets:
#	150
#	18457
#	37520
#	66890
#
# Disc length: 1584 seconds
#
# Revision: 1
# Processed by: cddbd v1.5.2PL0 Copyright (c) Steve Scherf et al.
# Submitted via: audiograbber 1.83.01
#
DISCID=25062e04
DTITLE=Anastacia - Welcome to my Truth
DYEAR=2004
DGENRE=Rock
TTITLE0=Welcome to my Truth (Radio Edit)
TTITLE1=The Saddest Part
TTITLE2=Sick and Tired (Live from the Hospital)
TTITLE3=Welcome to my Truth (Video)
EXTD=
EXTT0=
EXTT1=
EXTT2=
EXTT3=
PLAYORDER=
